<svg width="24" height="24" viewBox="0 0 24 24" fill="none" xmlns="http://www.w3.org/2000/svg">
<path d="M9.2252 13.0337C9.2252 12.7832 9.01737 12.5802 8.76094 12.5802H7.14088C6.88474 12.5802 6.67688 12.7832 6.67688 13.0337V14.6177C6.67688 14.8685 6.88474 15.0716 7.14088 15.0716H8.76094C9.01737 15.0716 9.2252 14.8685 9.2252 14.6177V13.0337Z" fill="white"/>
<path d="M13.2745 13.0337C13.2745 12.7832 13.0666 12.5802 12.8107 12.5802H11.1904C10.9343 12.5802 10.7264 12.7832 10.7264 13.0337V14.6177C10.7264 14.8685 10.9343 15.0716 11.1904 15.0716H12.8107C13.0666 15.0716 13.2745 14.8685 13.2745 14.6177V13.0337Z" fill="white"/>
<path d="M17.3226 13.0337C17.3226 12.7832 17.1147 12.5802 16.8586 12.5802H15.2385C14.9821 12.5802 14.7743 12.7832 14.7743 13.0337V14.6177C14.7743 14.8685 14.9821 15.0716 15.2385 15.0716H16.8586C17.1147 15.0716 17.3226 14.8685 17.3226 14.6177V13.0337Z" fill="white"/>
<path d="M9.2252 16.9932C9.2252 16.7422 9.01737 16.5394 8.76094 16.5394H7.14088C6.88474 16.5394 6.67688 16.7422 6.67688 16.9932V18.5768C6.67688 18.8275 6.88474 19.0305 7.14088 19.0305H8.76094C9.01737 19.0305 9.2252 18.8275 9.2252 18.5768V16.9932Z" fill="white"/>
<path d="M13.2745 16.9932C13.2745 16.7422 13.0666 16.5394 12.8107 16.5394H11.1904C10.9343 16.5394 10.7264 16.7422 10.7264 16.9932V18.5768C10.7264 18.8275 10.9343 19.0305 11.1904 19.0305H12.8107C13.0666 19.0305 13.2745 18.8275 13.2745 18.5768V16.9932Z" fill="white"/>
<path d="M17.3226 16.9932C17.3226 16.7422 17.1147 16.5394 16.8588 16.5394H15.2385C14.9821 16.5394 14.7743 16.7422 14.7743 16.9932V18.5768C14.7743 18.8275 14.9821 19.0305 15.2385 19.0305H16.8588C17.1147 19.0305 17.3226 18.8275 17.3226 18.5768V16.9932Z" fill="white"/>
<path d="M20.2199 4.22683V6.64617C20.2199 7.73968 19.3127 8.62089 18.1945 8.62089H16.9168C15.7986 8.62089 14.8794 7.73968 14.8794 6.64617V4.21815H9.12063V6.64617C9.12063 7.73968 8.20142 8.62089 7.08336 8.62089H5.80545C4.68735 8.62089 3.78017 7.73968 3.78017 6.64617V4.22683C2.80293 4.25564 1.99992 5.04633 1.99992 6.01821V20.1967C1.99992 21.1868 2.82065 22 3.83325 22H20.1667C21.1778 22 22.0001 21.1851 22.0001 20.1967V6.01821C22.0001 5.04633 21.1971 4.25564 20.2199 4.22683ZM19.6264 19.3137C19.6264 19.7416 19.2716 20.0888 18.8339 20.0888H5.13124C4.69346 20.0888 4.33865 19.7416 4.33865 19.3137V11.9901C4.33865 11.562 4.69342 11.2148 5.13124 11.2148H18.8338C19.2716 11.2148 19.6264 11.562 19.6264 11.9901L19.6264 19.3137Z" fill="white"/>
<path d="M5.80084 7.32388H7.06463C7.44823 7.32388 7.75925 7.0202 7.75925 6.64511V2.67892C7.75925 2.30379 7.44823 1.99991 7.06463 1.99991H5.80084C5.41721 1.99991 5.10623 2.30379 5.10623 2.67892V6.64511C5.10623 7.0202 5.41721 7.32388 5.80084 7.32388Z" fill="white"/>
<path d="M16.9003 7.32388H18.1641C18.5475 7.32388 18.8585 7.0202 18.8585 6.64511V2.67892C18.8585 2.30379 18.5475 1.99991 18.1641 1.99991H16.9003C16.5168 1.99991 16.2058 2.30379 16.2058 2.67892V6.64511C16.2058 7.0202 16.5168 7.32388 16.9003 7.32388Z" fill="white"/>
</svg>
