<svg width="24" height="25" viewBox="0 0 24 25" fill="none" xmlns="http://www.w3.org/2000/svg">
<path d="M9 2.97461C6.38 2.97461 4.25 5.10211 4.25 7.71903C4.25 10.286 6.26 12.3636 8.88 12.4535C8.96 12.4435 9.04 12.4435 9.1 12.4535C9.12 12.4535 9.13 12.4535 9.15 12.4535C9.16 12.4535 9.16 12.4535 9.17 12.4535C11.73 12.3636 13.74 10.286 13.75 7.71903C13.75 5.10211 11.62 2.97461 9 2.97461Z" fill="white"/>
<path d="M14.0809 15.1102C11.2909 13.2523 6.74094 13.2523 3.93094 15.1102C2.66094 15.9592 1.96094 17.1078 1.96094 18.3364C1.96094 19.5649 2.66094 20.7036 3.92094 21.5426C5.32094 22.4815 7.16094 22.9509 9.00094 22.9509C10.8409 22.9509 12.6809 22.4815 14.0809 21.5426C15.3409 20.6936 16.0409 19.5549 16.0409 18.3164C16.0309 17.0878 15.3409 15.9492 14.0809 15.1102Z" fill="white"/>
<path d="M19.9894 8.30695C20.1494 10.2447 18.7694 11.9427 16.8594 12.1724C16.8494 12.1724 16.8494 12.1724 16.8394 12.1724H16.8094C16.7494 12.1724 16.6894 12.1724 16.6394 12.1924C15.6694 12.2423 14.7794 11.9327 14.1094 11.3634C15.1394 10.4444 15.7294 9.06605 15.6094 7.56782C15.5394 6.75877 15.2594 6.01964 14.8394 5.39038C15.2194 5.2006 15.6594 5.08074 16.1094 5.04079C18.0694 4.87099 19.8194 6.32927 19.9894 8.30695Z" fill="white"/>
<path d="M21.9902 17.5465C21.9102 18.5154 21.2902 19.3544 20.2502 19.9237C19.2502 20.4731 17.9902 20.7328 16.7402 20.7028C17.4602 20.0536 17.8802 19.2445 17.9602 18.3855C18.0602 17.147 17.4702 15.9584 16.2902 15.0095C15.6202 14.4801 14.8402 14.0606 13.9902 13.751C16.2002 13.1117 18.9802 13.5412 20.6902 14.9196C21.6102 15.6587 22.0802 16.5877 21.9902 17.5465Z" fill="white"/>
</svg>
