<svg width="11" height="10" viewBox="0 0 11 10" fill="none" xmlns="http://www.w3.org/2000/svg">
<path d="M10.7219 4.37016L10.0447 3.58035C9.91526 3.43039 9.81069 3.15046 9.81069 2.95051V2.10072C9.81069 1.57086 9.37746 1.13597 8.84963 1.13597H8.0031C7.80889 1.13597 7.52506 1.03099 7.37567 0.901025L6.5889 0.221195C6.2453 -0.0737316 5.68261 -0.0737316 5.33404 0.221195L4.55225 0.906023C4.40286 1.03099 4.11902 1.13597 3.92482 1.13597H3.06335C2.53551 1.13597 2.10229 1.57086 2.10229 2.10072V2.95551C2.10229 3.15046 1.99772 3.43039 1.87323 3.58035L1.20099 4.37516C0.912171 4.72007 0.912171 5.27993 1.20099 5.62484L1.87323 6.41964C1.99772 6.56961 2.10229 6.84954 2.10229 7.04449V7.89927C2.10229 8.42914 2.53551 8.86403 3.06335 8.86403H3.92482C4.11902 8.86403 4.40286 8.96901 4.55225 9.09898L5.33902 9.77881C5.68261 10.0737 6.2453 10.0737 6.59388 9.77881L7.38065 9.09898C7.53004 8.96901 7.80889 8.86403 8.00808 8.86403H8.85461C9.38244 8.86403 9.81567 8.42914 9.81567 7.89927V7.04949C9.81567 6.85454 9.92024 6.56961 10.0497 6.41964L10.7269 5.62984C11.0157 5.28493 11.0157 4.71507 10.7219 4.37016ZM8.03297 4.05524L5.62784 6.46963C5.55812 6.53961 5.46351 6.57961 5.36392 6.57961C5.26433 6.57961 5.16971 6.53961 5.1 6.46963L3.89494 5.25993C3.75053 5.11497 3.75053 4.87503 3.89494 4.73007C4.03935 4.5851 4.27837 4.5851 4.42278 4.73007L5.36392 5.67483L7.50514 3.52537C7.64955 3.38041 7.88857 3.38041 8.03297 3.52537C8.17738 3.67033 8.17738 3.91027 8.03297 4.05524Z" fill="#ABFF00"/>
</svg>
